{"title":"Sinead O'Connor-Goodnight, Thank You... [Live] 2003 DVDRip x264","uid":14698594,"size":961416410,"categoryP":"video","categoryS":"movies","magnet":"?xt=urn:btih:c38ba8a6e0947241e33b4fb36480cc76592e87b6&amp;dn=Sinead+O%27Connor-Goodnight%2C+Thank+You...+%5BLive%5D+2003+DVDRip+x264+&amp;tr=udp%3A%2F%2Ftracker.leechers-paradise.org%3A6969&amp;tr=udp%3A%2F%2Fzer0day.ch%3A1337&amp;tr=udp%3A%2F%2Fopen.demonii.com%3A1337&amp;tr=udp%3A%2F%2Ftracker.coppersurfer.tk%3A6969&amp;tr=udp%3A%2F%2Fexodus.desync.com%3A6969","seeders":0,"leechers":1,"uploader":"movieZ.freak","files":3,"time":1464274239,"description":"SOURCE: DVD9 PAL\r\n\r\n\r\nSinéad O'Connor - Goodnight, Thank You, You've Been a Lovely Audience [Live in Dublin] (2003)\r\n\r\n \nhttp://www.imdb.com/title/tt2981566/\r\n\r\n \nhttps://en.wikipedia.org/wiki/Goodnight,_Thank_You,_You've_Been_a_Lovely_Audience\r\n\r\n\r\nNOTE:\r\n---------\r\nNo extras, only the concert.\r\n\r\n\r\n\r\nDVD MENU SCREENSHOTS:\r\n---------------------------- \nhttps://someimage.com/i2qW\r\n\r\n\r\n\r\nSCREENSHOTS:\r\n---------------------------- \nhttps://someimage.com/r1Dh\r\n\r\n\r\n\r\nINFO:\r\n-----------\r\nFilmed in her native Dublin, Ireland at the end of her first Irish tour in six years, Goodnight, Thank you, You've Been A Lovely Audience is a stunning performance that also serves as O’Connor’s self-imposed farewell to the entertainment industry. Featuring tracks from her latest album: 'Sean-Nós Nua'. ('Sean-Nós' meaning old style, 'Nua' meaning new.) These well-known Irish songs have been enhanced with new rhythms and sounds to give a distinctive reworking. Sinead also performs some of her best-loved hits including a magical version of 'Nothing Compares 2 U', an awesome 'Fire on Babylon' and many more of her classic songs. The final piece of the O'Connor musical legacy, this concert will undoubtedly serve as the definitive documentation of one of the most unique and controversial artists of the late 20th century.\r\n\r\n************************************\r\n\r\n- Duration: 1h 8mn\r\n\r\n- Nominal bit rate: 1375 Kbps\r\n\r\n- Res: 720 x 404\r\n\r\n- AR: 16:9\r\n\r\n- FPS: 25.000 fps\r\n\r\n- Audio: AC3, 6 channels, 448Kbps\r\n\r\n************************************\r\n\r\nGeneral\r\n------------\r\nFormat : Matroska\r\nFormat version : Version 4 / Version 2\r\nFile size : 900 MiB\r\nDuration : 1h 8mn\r\nOverall bit rate : 1832 Kbps\r\nEncoded date : UTC 2016-05-25 17:11:03\r\nWriting application : mkvmerge v9.1.0 ('Little Earthquakes') 64bit\r\nWriting library : libebml v1.3.3 + libmatroska v1.4.4\r\n\r\n\r\nVideo\r\n----------\r\nFormat : AVC\r\nFormat/Info : Advanced Video Codec\r\nFormat profile :   \r\nFormat settings, CABAC : Yes\r\nFormat settings, ReFrames : 5 frames\r\nCodec ID : V_MPEG4/ISO/AVC\r\nDuration : 1h 8mn\r\nBit rate : 1375 Kbps\r\nWidth : 720 pixels\r\nHeight : 404 pixels\r\nDisplay aspect ratio : 16:9\r\nFrame rate mode : Constant\r\nFrame rate : 25.000 fps\r\nColor space : YUV\r\nChroma subsampling : 4:2:0\r\nBit depth : 8 bits\r\nScan type : Progressive\r\nBits/(Pixel*Frame) : 0.189\r\nStream size : 662 MiB (74%)\r\nWriting library : x264 core 142\r\nEncoding settings : cabac=1 / ref=5\r\nDefault : Yes\r\nForced : No\r\n\r\n\r\nAudio\r\n---------\r\nFormat : AC-3\r\nFormat/Info : Audio Coding 3\r\nMode extension : CM (complete main)\r\nFormat settings, Endianness : Big\r\nCodec ID : A_AC3\r\nDuration : 1h 8mn\r\nBit rate mode : Constant\r\nBit rate : 448 Kbps\r\nChannel(s) : 6 channels\r\nChannel positions : Front: L C R, Side: L R, LFE\r\nSampling rate : 48.0 KHz\r\nBit depth : 16 bits\r\nCompression mode : Lossy\r\nStream size : 220 MiB (24%)\r\nTitle : Surround\r\nLanguage : English\r\nDefault : Yes\r\nForced : No","torrent":{"xt":"urn:btih:c38ba8a6e0947241e33b4fb36480cc76592e87b6","amp;dn":"Sinead+O%27Connor-Goodnight%2C+Thank+You...+%5BLive%5D+2003+DVDRip+x264+","amp;tr":["udp%3A%2F%2Ftracker.leechers-paradise.org%3A6969","udp%3A%2F%2Fzer0day.ch%3A1337","udp%3A%2F%2Fopen.demonii.com%3A1337","udp%3A%2F%2Ftracker.coppersurfer.tk%3A6969","udp%3A%2F%2Fexodus.desync.com%3A6969"],"infoHash":"c38ba8a6e0947241e33b4fb36480cc76592e87b6","infoHashBuffer":{"type":"Buffer","data":[195,139,168,166,224,148,114,65,227,59,79,179,100,128,204,118,89,46,135,182]},"announce":[],"urlList":[]}}